<svg width="99" height="112" viewBox="0 0 99 112" fill="none" xmlns="http://www.w3.org/2000/svg">
<path d="M2.49379 0.00331438C2.01098 0.0290335 1.54564 0.192534 1.15285 0.474466C0.760065 0.756398 0.456269 1.14496 0.27742 1.59416C0.098572 2.04336 0.0521586 2.5344 0.143673 3.00915C0.235187 3.48391 0.460798 3.92251 0.793804 4.27304L14.0379 18.7031V68.2004C14.0331 68.5356 14.0951 68.8685 14.2201 69.1797C14.3451 69.4908 14.5307 69.774 14.7662 70.0128C15.0016 70.2515 15.2821 70.4411 15.5914 70.5706C15.9008 70.7 16.2328 70.7666 16.5681 70.7666C16.9034 70.7666 17.2354 70.7 17.5447 70.5706C17.854 70.4411 18.1346 70.2515 18.37 70.0128C18.6054 69.774 18.791 69.4908 18.9161 69.1797C19.0411 68.8685 19.103 68.5356 19.0983 68.2004V17.7543C19.1039 17.1101 18.8635 16.4879 18.4262 16.0148L4.51005 0.833539C4.25712 0.5536 3.94479 0.33376 3.59593 0.190111C3.24707 0.046462 2.8705 -0.0173605 2.49379 0.00331438ZM26.4517 30.4054C25.8226 30.4646 25.2384 30.7572 24.8141 31.2254C24.3898 31.6936 24.156 32.3037 24.1587 32.9356V73.4189C24.1588 74.0899 24.4254 74.7335 24.8999 75.208C25.3744 75.6825 26.0179 75.9491 26.6889 75.9491H95.0046C95.6756 75.9491 96.3191 75.6825 96.7936 75.208C97.2681 74.7335 97.5347 74.0899 97.5348 73.4189V45.5866C97.5347 44.9156 97.2681 44.2721 96.7936 43.7976C96.3191 43.3231 95.6756 43.0565 95.0046 43.0564H67.1723V32.9356C67.1722 32.2645 66.9056 31.621 66.4311 31.1465C65.9566 30.672 65.3131 30.4054 64.642 30.4054H26.6889C26.6099 30.4016 26.5307 30.4016 26.4517 30.4054ZM29.2191 35.4658H62.1118V70.8887H29.2191V35.4658ZM67.1723 48.1168H92.4743V70.8887H67.1723V48.1168ZM16.5285 75.9887C16.1963 75.9938 15.8683 76.0644 15.5633 76.1964C15.2583 76.3283 14.9823 76.5191 14.751 76.7577C14.5197 76.9963 14.3377 77.2781 14.2153 77.5871C14.093 77.8961 14.0327 78.2261 14.0379 78.5584V83.5397C14.0379 84.2108 14.3045 84.8543 14.779 85.3288C15.2535 85.8033 15.897 86.0699 16.5681 86.07H96.2697C96.6049 86.0747 96.9378 86.0128 97.249 85.8877C97.5601 85.7627 97.8433 85.5771 98.0821 85.3417C98.3208 85.1062 98.5105 84.8257 98.6399 84.5164C98.7693 84.207 98.8359 83.8751 98.8359 83.5397C98.8359 83.2044 98.7693 82.8725 98.6399 82.5631C98.5105 82.2538 98.3208 81.9733 98.0821 81.7378C97.8433 81.5024 97.5601 81.3168 97.249 81.1918C96.9378 81.0667 96.6049 81.0048 96.2697 81.0095H19.0983V78.5584C19.1036 78.2195 19.0407 77.8829 18.9135 77.5688C18.7862 77.2546 18.5971 76.9692 18.3574 76.7295C18.1178 76.4898 17.8324 76.3007 17.5182 76.1735C17.204 76.0462 16.8675 75.9834 16.5285 75.9887ZM34.2795 91.1304C28.7199 91.1304 24.1587 95.6916 24.1587 101.251C24.1587 106.811 28.7199 111.372 34.2795 111.372C39.8392 111.372 44.4004 106.811 44.4004 101.251C44.4004 95.6916 39.8392 91.1304 34.2795 91.1304ZM87.4139 91.1304C81.8543 91.1304 77.2931 95.6916 77.2931 101.251C77.2931 106.811 81.8543 111.372 87.4139 111.372C92.9735 111.372 97.5348 106.811 97.5348 101.251C97.5348 95.6916 92.9735 91.1304 87.4139 91.1304ZM34.2795 96.1908C37.1043 96.1908 39.34 98.4265 39.34 101.251C39.34 104.076 37.1043 106.312 34.2795 106.312C31.4548 106.312 29.2191 104.076 29.2191 101.251C29.2191 98.4265 31.4548 96.1908 34.2795 96.1908ZM87.4139 96.1908C90.2387 96.1908 92.4743 98.4265 92.4743 101.251C92.4743 104.076 90.2387 106.312 87.4139 106.312C84.5892 106.312 82.3535 104.076 82.3535 101.251C82.3535 98.4265 84.5892 96.1908 87.4139 96.1908Z" fill="white"/>
</svg>
